HIERARCHY
ROOT hip
{
	OFFSET 0.000000 0.000000 0.000000 
	CHANNELS 6 Xposition Yposition Zposition Xrotation Zrotation Yrotation
	JOINT abdomen
	{
		OFFSET 0.000000 3.402643 0.000000 
		CHANNELS 3 Xrotation Zrotation Yrotation
		JOINT chest
		{
			OFFSET 0.000000 8.438565 -0.680529 
			CHANNELS 3 Xrotation Zrotation Yrotation
			JOINT neck
			{
				OFFSET 0.000000 10.207942 -0.272212 
				CHANNELS 3 Xrotation Zrotation Yrotation
				JOINT head
				{
					OFFSET 0.000000 3.130431 0.000000 
					CHANNELS 3 Xrotation Zrotation Yrotation
					End Site
					{
						OFFSET 0.000000 3.130435 0.000000 
					}
				}
			}
			JOINT lCollar
			{
				OFFSET 3.470700 6.669187 -0.816635 
				CHANNELS 3 Yrotation Zrotation Xrotation
				JOINT lShldr
				{
					OFFSET 3.198488 0.000000 0.000000 
					CHANNELS 3 Zrotation Yrotation Xrotation
					JOINT lForeArm
					{
						OFFSET 10.139888 0.000000 0.000000 
						CHANNELS 3 Yrotation Zrotation Xrotation
						JOINT lHand
						{
							OFFSET 8.370511 0.000000 0.000000 
							CHANNELS 3 Zrotation Yrotation Xrotation
							End Site
							{
								OFFSET 4.083176 0.000000 0.000000 
							}
						}
					}
				}
			}
			JOINT rCollar
			{
				OFFSET -3.470700 6.669187 -0.816635 
				CHANNELS 3 Yrotation Zrotation Xrotation
				JOINT rShldr
				{
					OFFSET -3.198488 0.000000 0.000000 
					CHANNELS 3 Zrotation Yrotation Xrotation
					JOINT rForeArm
					{
						OFFSET -10.139888 0.000000 0.000000 
						CHANNELS 3 Yrotation Zrotation Xrotation
						JOINT rHand
						{
							OFFSET -8.370511 0.000000 0.000000 
							CHANNELS 3 Zrotation Yrotation Xrotation
							End Site
							{
								OFFSET -4.083176 0.000000 0.000000 
							}
						}
					}
				}
			}
		}
	}
	JOINT lThigh
	{
		OFFSET 5.308129 -1.633274 1.361059 
		CHANNELS 3 Xrotation Zrotation Yrotation
		JOINT lShin
		{
			OFFSET -2.041588 -20.007561 0.000000 
			CHANNELS 3 Xrotation Zrotation Yrotation
			JOINT lFoot
			{
				OFFSET 0.000000 -19.190928 -1.224953 
				CHANNELS 3 Xrotation Yrotation Zrotation
				End Site
				{
					OFFSET 0.000000 -2.449906 4.627600 
				}
			}
		}
	}
	JOINT rThigh
	{
		OFFSET -5.308129 -1.633274 1.361059 
		CHANNELS 3 Xrotation Zrotation Yrotation
		JOINT rShin
		{
			OFFSET 2.041588 -20.007561 0.000000 
			CHANNELS 3 Xrotation Zrotation Yrotation
			JOINT rFoot
			{
				OFFSET 0.000000 -19.190928 -1.224953 
				CHANNELS 3 Xrotation Yrotation Zrotation
				End Site
				{
					OFFSET 0.000000 -2.449906 4.627600 
				}
			}
		}
	}
}
MOTION
Frames: 11
Frame Time: 0.011111
11.035456 51.463840 26.881311 0.152613 2.368081 167.398987 8.663910 8.418703 2.235671 -5.049254 6.608235 0.742362 -17.414276 -5.321563 0.248726 23.429792 5.744951 0.083711 12.413046 -14.960623 4.251975 -23.160826 -94.811745 22.412966 -59.519737 9.775059 11.167356 6.992188 16.005859 -61.257072 -6.427974 8.898234 2.089853 61.653049 83.398544 51.145302 57.444241 -9.511751 10.294024 -7.001954 -15.996095 46.757813 -30.280159 16.033432 0.958668 36.516430 -5.147710 -2.741192 -19.961033 -8.560349 -3.250732 3.895432 -0.175630 3.192924 25.761103 5.264967 1.866820 -23.248808 4.120517 1.485343 
10.973216 51.400349 26.494415 0.152308 2.232635 166.920090 8.660686 8.166862 2.269721 -4.921463 6.606575 0.758094 -17.266033 -5.292421 0.225103 22.959784 5.778076 0.053699 12.413046 -14.960623 4.251975 -21.564514 -94.980385 20.350121 -59.455357 9.766482 11.135489 6.992188 16.005859 -61.628162 -6.427974 8.898234 2.089853 61.368286 83.221222 50.916714 57.433277 -9.508941 10.284291 -7.001954 -15.996095 46.718750 -30.367239 16.013454 1.049469 35.664120 -5.166846 -2.673378 -20.356247 -7.981740 -3.040318 4.405252 -0.525756 3.280880 25.309624 5.274483 1.821629 -23.360952 4.349068 1.565325 
10.906909 51.323093 26.113464 0.028492 2.624131 166.290405 8.738588 8.574198 2.385711 -4.813432 6.449244 0.801533 -17.532394 -4.971956 0.303043 23.052929 5.388973 0.156690 12.413046 -14.960623 4.251975 -21.490038 -94.965317 20.185137 -59.414368 9.767334 11.131820 6.992188 16.005859 -61.696526 -6.427974 8.898234 2.089853 60.995625 82.996162 50.670105 57.645676 -9.538394 10.371761 -7.001954 -15.996095 46.767574 -30.620125 16.608484 1.133806 34.850746 -5.187028 -2.616267 -20.645851 -7.031322 -2.685994 5.018648 -0.312372 3.549353 24.870661 5.269236 1.773559 -23.445030 4.539576 1.675531 
10.862182 51.280869 25.742832 -0.113604 2.744164 165.531937 8.799885 8.562821 2.644912 -4.842895 6.460244 0.866480 -17.716843 -4.775543 0.363651 23.314192 5.069864 0.260080 12.413046 -14.960623 4.251975 -21.292030 -94.955452 19.962374 -59.318504 9.756695 11.086590 6.992188 16.005859 -61.764889 -6.427974 8.898234 2.089853 60.058685 82.674675 49.897430 57.880005 -9.572261 10.471019 -7.001954 -15.996095 46.933594 -30.883917 17.018665 1.294405 34.079014 -5.186891 -2.545552 -20.491674 -6.073787 -2.303132 5.481906 -0.321403 4.051116 24.469440 5.274734 1.748888 -23.734261 4.657666 1.713826 
10.804946 51.258038 25.355307 -0.283524 2.552061 165.182526 8.637319 8.301326 2.535879 -4.783931 6.468797 0.843671 -17.730804 -4.686160 0.388611 23.110260 5.047452 0.324228 12.413046 -14.960623 4.251975 -21.224001 -94.974586 19.991682 -59.167786 9.734171 11.019486 6.992188 16.005859 -61.696526 -6.427974 8.898234 2.089853 59.992611 82.551987 49.696701 57.870430 -9.574761 10.469396 -7.001954 -15.996095 46.982418 -31.194286 16.968626 1.173674 33.284428 -5.205935 -2.479824 -20.149807 -5.273155 -1.989907 5.796390 -0.663218 4.035347 24.128002 5.279070 1.706774 -23.916130 4.760500 1.748198 
10.726128 51.215809 24.963409 -0.538089 2.735933 164.895554 8.465956 8.614441 2.379628 -4.567902 6.328446 0.810261 -17.758741 -4.804638 0.502640 22.848104 5.311943 0.546052 12.413046 -14.960623 4.251975 -22.743582 -94.801537 21.859842 -59.210236 9.738520 11.033011 6.992188 16.005859 -61.227776 -6.427974 8.898234 2.089853 61.051224 82.655258 50.194920 57.636093 -9.540865 10.370143 -7.001954 -15.996095 46.367188 -31.622768 17.270683 0.857443 32.479977 -5.220463 -2.411392 -19.850159 -4.497723 -1.698534 6.196449 -0.614397 3.835344 23.788298 5.275357 1.692192 -23.937681 4.862952 1.784785 
10.668578 51.164204 24.591213 -0.724504 2.793431 164.192001 8.506696 8.524232 2.717006 -4.509087 6.220749 0.905273 -18.003056 -4.800597 0.540892 23.090836 5.554060 0.636597 12.413046 -14.960623 4.251975 -22.240553 -94.867203 21.305103 -59.274620 9.747464 11.064751 6.992188 16.005859 -61.354729 -6.427974 8.898234 2.089853 61.630947 82.656624 49.923523 57.379833 -9.500109 10.261688 -7.001954 -15.996095 45.361328 -31.866951 17.573421 0.752871 31.754215 -5.235439 -2.356844 -19.880613 -3.235307 -1.234199 6.532283 -0.741975 4.220503 23.436386 5.279538 1.649691 -24.023567 5.036813 1.874627 
10.629481 51.111351 24.218081 -0.908980 2.893184 163.360214 8.634626 8.386681 3.121626 -4.597528 6.174222 1.013308 -18.318291 -4.575726 0.538722 23.291573 5.371697 0.607121 12.413046 -14.960623 4.251975 -21.782478 -94.878235 20.448984 -59.306095 9.749407 11.076494 6.992188 16.005859 -61.803951 -6.427974 8.898234 2.089853 61.273258 82.538322 49.575161 57.357899 -9.494451 10.242242 -7.001954 -15.996095 45.292965 -32.058762 18.016508 0.802112 31.059940 -5.235248 -2.299195 -20.067896 -1.900615 -0.743776 6.890999 -0.800024 4.941487 23.123299 5.289335 1.629339 -24.231409 5.100187 1.907055 
10.574121 51.044731 23.823677 -1.177416 3.258706 162.742142 8.711670 8.833591 2.994800 -4.587722 6.163984 0.975371 -18.616096 -4.697020 0.760959 23.330587 5.335004 0.964358 12.413046 -14.960623 4.251975 -24.979445 -94.406540 23.252687 -59.392422 9.762776 11.110282 6.992188 16.005859 -61.843014 -6.427974 8.898234 2.089853 61.371265 82.522644 50.650349 57.571686 -9.529506 10.339308 -7.001954 -15.996095 46.083988 -32.263523 18.651045 0.701307 30.323141 -5.249281 -2.224420 -20.152195 -1.165159 -0.469890 7.328142 -0.565355 5.506382 22.815411 5.274661 1.614633 -24.417734 5.085701 1.861524 
10.497806 50.983109 23.402061 -1.286519 3.311707 162.294556 8.644005 8.941626 2.837306 -4.558350 6.094779 0.930170 -18.510574 -4.862926 0.839985 23.359190 5.479323 1.141502 12.413046 -14.960623 4.251975 -27.468105 -94.070908 25.670113 -59.466324 9.768745 11.145433 6.992188 16.005859 -61.735588 -6.427974 8.898234 2.089853 61.457783 82.381271 51.075977 57.647064 -9.543620 10.381517 -7.001954 -15.996095 46.386719 -32.264065 18.807638 0.401561 29.625402 -5.264491 -2.170075 -20.394758 -0.468571 -0.228000 7.800027 -0.761180 5.642103 22.452776 5.278415 1.571716 -24.451258 5.313659 1.986398 
10.440256 50.931190 22.983578 -1.254504 3.171962 161.752502 8.608150 8.532401 3.041564 -4.479867 6.035196 0.987623 -18.077223 -4.479362 0.686130 22.843794 5.086311 0.900728 12.413046 -14.960623 4.251975 -27.149532 -94.078842 25.642515 -59.434864 9.766911 11.133653 6.992188 16.005859 -61.608635 -6.427974 8.898234 2.089853 60.897243 82.117195 50.341679 57.645676 -9.538394 10.371761 -7.001954 -15.996095 46.337887 -32.107590 18.778194 0.338430 28.956980 -5.278328 -2.107588 -20.631477 0.387880 0.106988 8.321143 -1.237954 5.813344 22.049978 5.279961 1.516252 -24.456762 5.759283 2.203434 
